<svg width="15" height="15" viewBox="0 0 15 15" fill="none" xmlns="http://www.w3.org/2000/svg">
<path d="M7.5 0C3.3525 0 0 3.3525 0 7.5C0 11.6475 3.3525 15 7.5 15C11.6475 15 15 11.6475 15 7.5C15 3.3525 11.6475 0 7.5 0ZM10.725 10.725C10.4325 11.0175 9.96 11.0175 9.6675 10.725L7.5 8.5575L5.3325 10.725C5.04 11.0175 4.5675 11.0175 4.275 10.725C3.9825 10.4325 3.9825 9.96 4.275 9.6675L6.4425 7.5L4.275 5.3325C3.9825 5.04 3.9825 4.5675 4.275 4.275C4.5675 3.9825 5.04 3.9825 5.3325 4.275L7.5 6.4425L9.6675 4.275C9.96 3.9825 10.4325 3.9825 10.725 4.275C11.0175 4.5675 11.0175 5.04 10.725 5.3325L8.5575 7.5L10.725 9.6675C11.01 9.9525 11.01 10.4325 10.725 10.725Z" fill="white" fill-opacity="0.6"/>
</svg>